<svg width="571" height="116" viewBox="0 0 571 116" fill="none" xmlns="http://www.w3.org/2000/svg">
<path d="M68.6591 48.4773H51.6136C51.3864 46.7273 50.9205 45.1477 50.2159 43.7386C49.5114 42.3295 48.5795 41.125 47.4205 40.125C46.2614 39.125 44.8864 38.3636 43.2955 37.8409C41.7273 37.2955 39.9886 37.0227 38.0795 37.0227C34.6932 37.0227 31.7727 37.8523 29.3182 39.5114C26.8864 41.1705 25.0114 43.5682 23.6932 46.7045C22.3977 49.8409 21.75 53.6364 21.75 58.0909C21.75 62.7273 22.4091 66.6136 23.7273 69.75C25.0682 72.8636 26.9432 75.2159 29.3523 76.8068C31.7841 78.375 34.6591 79.1591 37.9773 79.1591C39.8409 79.1591 41.5341 78.9205 43.0568 78.4432C44.6023 77.9659 45.9545 77.2727 47.1136 76.3636C48.2955 75.4318 49.2614 74.3068 50.0114 72.9886C50.7841 71.6477 51.3182 70.1364 51.6136 68.4545L68.6591 68.5568C68.3636 71.6477 67.4659 74.6932 65.9659 77.6932C64.4886 80.6932 62.4545 83.4318 59.8636 85.9091C57.2727 88.3636 54.1136 90.3182 50.3864 91.7727C46.6818 93.2273 42.4318 93.9545 37.6364 93.9545C31.3182 93.9545 25.6591 92.5682 20.6591 89.7955C15.6818 87 11.75 82.9318 8.86364 77.5909C5.97727 72.25 4.53409 65.75 4.53409 58.0909C4.53409 50.4091 6 43.8977 8.93182 38.5568C11.8636 33.2159 15.8295 29.1591 20.8295 26.3864C25.8295 23.6136 31.4318 22.2273 37.6364 22.2273C41.8636 22.2273 45.7727 22.8182 49.3636 24C52.9545 25.1591 56.1136 26.8636 58.8409 29.1136C61.5682 31.3409 63.7841 34.0795 65.4886 37.3295C67.1932 40.5795 68.25 44.2955 68.6591 48.4773ZM94.9858 23.1818V93H78.3153V23.1818H94.9858ZM105.597 93V40.6364H122.267V93H105.597ZM113.949 34.5341C111.608 34.5341 109.597 33.7614 107.915 32.2159C106.233 30.6477 105.392 28.7614 105.392 26.5568C105.392 24.375 106.233 22.5114 107.915 20.9659C109.597 19.3977 111.608 18.6136 113.949 18.6136C116.313 18.6136 118.324 19.3977 119.983 20.9659C121.665 22.5114 122.506 24.375 122.506 26.5568C122.506 28.7614 121.665 30.6477 119.983 32.2159C118.324 33.7614 116.313 34.5341 113.949 34.5341ZM132.878 112.636V40.6364H149.378V49.6023H149.889C150.571 48.0114 151.537 46.4773 152.787 45C154.06 43.5227 155.673 42.3182 157.628 41.3864C159.605 40.4318 161.969 39.9545 164.719 39.9545C168.355 39.9545 171.753 40.9091 174.912 42.8182C178.094 44.7273 180.662 47.6705 182.616 51.6477C184.571 55.625 185.548 60.6932 185.548 66.8523C185.548 72.7841 184.605 77.75 182.719 81.75C180.855 85.75 178.332 88.75 175.151 90.75C171.991 92.75 168.48 93.75 164.616 93.75C161.98 93.75 159.696 93.3182 157.764 92.4545C155.832 91.5909 154.207 90.4545 152.889 89.0455C151.594 87.6364 150.594 86.125 149.889 84.5114H149.548V112.636H132.878ZM149.207 66.8182C149.207 69.6364 149.582 72.0909 150.332 74.1818C151.105 76.2727 152.207 77.8977 153.639 79.0568C155.094 80.1932 156.832 80.7614 158.855 80.7614C160.901 80.7614 162.639 80.1932 164.071 79.0568C165.503 77.8977 166.582 76.2727 167.31 74.1818C168.06 72.0909 168.435 69.6364 168.435 66.8182C168.435 64 168.06 61.5568 167.31 59.4886C166.582 57.4205 165.503 55.8182 164.071 54.6818C162.662 53.5455 160.923 52.9773 158.855 52.9773C156.81 52.9773 155.071 53.5341 153.639 54.6477C152.207 55.7614 151.105 57.3523 150.332 59.4205C149.582 61.4886 149.207 63.9545 149.207 66.8182ZM240 56.625L224.693 57.0341C224.534 55.9432 224.102 54.9773 223.398 54.1364C222.693 53.2727 221.773 52.6023 220.636 52.125C219.523 51.625 218.227 51.375 216.75 51.375C214.818 51.375 213.17 51.7614 211.807 52.5341C210.466 53.3068 209.807 54.3523 209.83 55.6705C209.807 56.6932 210.216 57.5795 211.057 58.3295C211.92 59.0795 213.455 59.6818 215.659 60.1364L225.75 62.0455C230.977 63.0455 234.864 64.7045 237.409 67.0227C239.977 69.3409 241.273 72.4091 241.295 76.2273C241.273 79.8182 240.205 82.9432 238.091 85.6023C236 88.2614 233.136 90.3295 229.5 91.8068C225.864 93.2614 221.705 93.9886 217.023 93.9886C209.545 93.9886 203.648 92.4545 199.33 89.3864C195.034 86.2955 192.58 82.1591 191.966 76.9773L208.432 76.5682C208.795 78.4773 209.739 79.9318 211.261 80.9318C212.784 81.9318 214.727 82.4318 217.091 82.4318C219.227 82.4318 220.966 82.0341 222.307 81.2386C223.648 80.4432 224.33 79.3864 224.352 78.0682C224.33 76.8864 223.807 75.9432 222.784 75.2386C221.761 74.5114 220.159 73.9432 217.977 73.5341L208.841 71.7955C203.591 70.8409 199.682 69.0795 197.114 66.5114C194.545 63.9205 193.273 60.625 193.295 56.625C193.273 53.125 194.205 50.1364 196.091 47.6591C197.977 45.1591 200.659 43.25 204.136 41.9318C207.614 40.6136 211.716 39.9545 216.443 39.9545C223.534 39.9545 229.125 41.4432 233.216 44.4205C237.307 47.375 239.568 51.4432 240 56.625ZM249.503 93V23.1818H297.162V36.8864H266.378V51.2045H294.128V64.9432H266.378V93H249.503ZM319.577 93.8864C316.236 93.8864 313.27 93.3295 310.679 92.2159C308.111 91.0795 306.077 89.375 304.577 87.1023C303.099 84.8068 302.361 81.9318 302.361 78.4773C302.361 75.5682 302.872 73.1136 303.895 71.1136C304.918 69.1136 306.327 67.4886 308.122 66.2386C309.918 64.9886 311.986 64.0455 314.327 63.4091C316.668 62.75 319.168 62.3068 321.827 62.0795C324.804 61.8068 327.202 61.5227 329.02 61.2273C330.838 60.9091 332.156 60.4659 332.974 59.8977C333.815 59.3068 334.236 58.4773 334.236 57.4091V57.2386C334.236 55.4886 333.634 54.1364 332.429 53.1818C331.224 52.2273 329.599 51.75 327.554 51.75C325.349 51.75 323.577 52.2273 322.236 53.1818C320.895 54.1364 320.043 55.4545 319.679 57.1364L304.304 56.5909C304.759 53.4091 305.929 50.5682 307.815 48.0682C309.724 45.5455 312.338 43.5682 315.656 42.1364C318.997 40.6818 323.009 39.9545 327.69 39.9545C331.031 39.9545 334.111 40.3523 336.929 41.1477C339.747 41.9205 342.202 43.0568 344.293 44.5568C346.384 46.0341 347.997 47.8523 349.134 50.0114C350.293 52.1705 350.872 54.6364 350.872 57.4091V93H335.19V85.7045H334.781C333.849 87.4773 332.656 88.9773 331.202 90.2045C329.77 91.4318 328.077 92.3523 326.122 92.9659C324.19 93.5795 322.009 93.8864 319.577 93.8864ZM324.724 82.9773C326.52 82.9773 328.134 82.6136 329.565 81.8864C331.02 81.1591 332.179 80.1591 333.043 78.8864C333.906 77.5909 334.338 76.0909 334.338 74.3864V69.4091C333.861 69.6591 333.281 69.8864 332.599 70.0909C331.94 70.2955 331.213 70.4886 330.418 70.6705C329.622 70.8523 328.804 71.0114 327.963 71.1477C327.122 71.2841 326.315 71.4091 325.543 71.5227C323.974 71.7727 322.634 72.1591 321.52 72.6818C320.429 73.2045 319.588 73.8864 318.997 74.7273C318.429 75.5455 318.145 76.5227 318.145 77.6591C318.145 79.3864 318.759 80.7045 319.986 81.6136C321.236 82.5227 322.815 82.9773 324.724 82.9773ZM406.781 56.625L391.474 57.0341C391.315 55.9432 390.884 54.9773 390.179 54.1364C389.474 53.2727 388.554 52.6023 387.418 52.125C386.304 51.625 385.009 51.375 383.531 51.375C381.599 51.375 379.952 51.7614 378.588 52.5341C377.247 53.3068 376.588 54.3523 376.611 55.6705C376.588 56.6932 376.997 57.5795 377.838 58.3295C378.702 59.0795 380.236 59.6818 382.44 60.1364L392.531 62.0455C397.759 63.0455 401.645 64.7045 404.19 67.0227C406.759 69.3409 408.054 72.4091 408.077 76.2273C408.054 79.8182 406.986 82.9432 404.872 85.6023C402.781 88.2614 399.918 90.3295 396.281 91.8068C392.645 93.2614 388.486 93.9886 383.804 93.9886C376.327 93.9886 370.429 92.4545 366.111 89.3864C361.815 86.2955 359.361 82.1591 358.747 76.9773L375.213 76.5682C375.577 78.4773 376.52 79.9318 378.043 80.9318C379.565 81.9318 381.509 82.4318 383.872 82.4318C386.009 82.4318 387.747 82.0341 389.088 81.2386C390.429 80.4432 391.111 79.3864 391.134 78.0682C391.111 76.8864 390.588 75.9432 389.565 75.2386C388.543 74.5114 386.94 73.9432 384.759 73.5341L375.622 71.7955C370.372 70.8409 366.463 69.0795 363.895 66.5114C361.327 63.9205 360.054 60.625 360.077 56.625C360.054 53.125 360.986 50.1364 362.872 47.6591C364.759 45.1591 367.44 43.25 370.918 41.9318C374.395 40.6136 378.497 39.9545 383.224 39.9545C390.315 39.9545 395.906 41.4432 399.997 44.4205C404.088 47.375 406.349 51.4432 406.781 56.625ZM445.841 40.6364V52.9091H412.807V40.6364H445.841ZM419.727 28.0909H436.398V76.5341C436.398 77.5568 436.557 78.3864 436.875 79.0227C437.216 79.6364 437.705 80.0795 438.341 80.3523C438.977 80.6023 439.739 80.7273 440.625 80.7273C441.261 80.7273 441.932 80.6705 442.636 80.5568C443.364 80.4205 443.909 80.3068 444.273 80.2159L446.795 92.25C446 92.4773 444.875 92.7614 443.42 93.1023C441.989 93.4432 440.273 93.6591 438.273 93.75C434.364 93.9318 431.011 93.4773 428.216 92.3864C425.443 91.2727 423.318 89.5455 421.841 87.2045C420.386 84.8636 419.682 81.9205 419.727 78.375V28.0909Z" fill="black"/>
<g clip-path="url(#clip0_604_11)">
<path fill-rule="evenodd" clip-rule="evenodd" d="M529.725 99L571 58L529.725 17V57.4534L489 17V99L529.725 58.5465V99Z" fill="black"/>
</g>
<defs>
<clipPath id="clip0_604_11">
<rect width="82" height="82" fill="white" transform="matrix(0 1 -1 0 571 17)"/>
</clipPath>
</defs>
</svg>
